<?xml version="1.0" standalone="no"?><svg xmlns="http://www.w3.org/2000/svg" viewBox="0 0 1440 320"><path fill="#273036" fill-opacity="1" d="M0,32L34.3,64C68.6,96,137,160,206,181.3C274.3,203,343,181,411,165.3C480,149,549,139,617,149.3C685.7,160,754,192,823,224C891.4,256,960,288,1029,298.7C1097.1,309,1166,299,1234,272C1302.9,245,1371,203,1406,181.3L1440,160L1440,320L1405.7,320C1371.4,320,1303,320,1234,320C1165.7,320,1097,320,1029,320C960,320,891,320,823,320C754.3,320,686,320,617,320C548.6,320,480,320,411,320C342.9,320,274,320,206,320C137.1,320,69,320,34,320L0,320Z"></path></svg>